# xmcd
#
# Track frame offsets:
#	150
#	16307
#	28002
#	40596
#	55252
#	76344
#	91801
#	108686
#	122903
#	137740
#	151999
#	166857
#	181659
#	197412
#	212127
#	226804
#	242623
#	256868
#	270897
#	285908
#	299919
#	317776
#	333215
#
# Disc length: 4716 seconds
#
# Revision: 0
# Processed by: cddbd v1.4PL0 Copyright (c) Steve Scherf et al.
# Submitted via: dBpowerAMP V4.0
#
DISCID=31126a17
DTITLE=Magniicent Seven - Magnitude/South Of The Boredom
DYEAR=1900
DGENRE=Country
TTITLE0=Cool 2.B.A. Cowboy
TTITLE1=Lucky Lips
TTITLE2=My Mate Bruce
TTITLE3=Joesphine
TTITLE4=Yes Orino
TTITLE5=Don't It Make You Want To Go Home
TTITLE6=Party Till The Cows Come Home
TTITLE7=As I Am
TTITLE8=Hey Dwight Yoakam
TTITLE9=My Old Friend Misery
TTITLE10=Women
TTITLE11=Things
TTITLE12=Buckle Hits The Floor
TTITLE13=Cook Coutnry
TTITLE14=Cowboy Heaven
TTITLE15=Little Ole Wine Drinker Me
TTITLE16=Hooked On Music
TTITLE17=Barmaids And Angels
TTITLE18=Hurtin'
TTITLE19=Born In Boots
TTITLE20=Pour Another Whiskey
TTITLE21=It's Only Love
TTITLE22=Legs
EXTD=
EXTT0=
EXTT1=
EXTT2=
EXTT3=
EXTT4=
EXTT5=
EXTT6=
EXTT7=
EXTT8=
EXTT9=
EXTT10=
EXTT11=
EXTT12=
EXTT13=
EXTT14=
EXTT15=
EXTT16=
EXTT17=
EXTT18=
EXTT19=
EXTT20=
EXTT21=
EXTT22=
PLAYORDER=
